# xmcd
#
# Track frame offsets:
#	183
#	15360
#	28878
#	41683
#	58878
#	69583
#	85195
#	89973
#	102063
#	109245
#	122150
#	130550
#	140100
#	149253
#	166560
#
# Disc length: 2398 seconds
#
# Revision: 1
# Processed by: cddbd v1.5.1PL0 Copyright (c) Steve Scherf et al.
# Submitted via: audiograbber 1.83.01
#
DISCID=d2095c0f
DTITLE=Poutnici - The Days Of Auld Lang Syne
DYEAR=1900
DGENRE=Bluegrass
TTITLE0=Mule Skinner Blues
TTITLE1=In the Pines
TTITLE2=Wabash Cannonball
TTITLE3=Rain and Snow
TTITLE4=Take me Back to Tulsa
TTITLE5=Amazing Grace
TTITLE6=Monkey Mountain Breakdown
TTITLE7=Waiting for Train
TTITLE8=Karel's Strap
TTITLE9=Peace in the Valley
TTITLE10=Columbus Stockade Blues
TTITLE11=The Legend of the Johnson Boys
TTITLE12=Oh, Susanna
TTITLE13=Precious Memories
TTITLE14=Auld Lang Syne
EXTD=
EXTT0=
EXTT1=
EXTT2=
EXTT3=
EXTT4=
EXTT5=
EXTT6=
EXTT7=
EXTT8=
EXTT9=
EXTT10=
EXTT11=
EXTT12=
EXTT13=
EXTT14=
PLAYORDER=
